<?xml version="1.0" encoding="UTF-8" standalone="no" ?>
<!DOCTYPE svg PUBLIC "-//W3C//DTD SVG 1.1//EN" "http://www.w3.org/Graphics/SVG/1.1/DTD/svg11.dtd">
<svg xmlns="http://www.w3.org/2000/svg" xmlns:xlink="http://www.w3.org/1999/xlink" version="1.1" width="1080" height="1080" viewBox="0 0 1080 1080" xml:space="preserve">
<desc>Created with Fabric.js 5.2.4</desc>
<defs>
</defs>
<g transform="matrix(1 0 0 1 540 540)" id="96849902-52bd-4649-9824-32e3e041e857"  >
<rect style="stroke: none; stroke-width: 1; stroke-dasharray: none; stroke-linecap: butt; stroke-dashoffset: 0; stroke-linejoin: miter; stroke-miterlimit: 4; fill: rgb(255,255,255); fill-rule: nonzero; opacity: 1; visibility: hidden;" vector-effect="non-scaling-stroke"  x="-540" y="-540" rx="0" ry="0" width="1080" height="1080" />
</g>
<g transform="matrix(1 0 0 1 540 540)" id="d1d8e6cc-9a5b-4f94-bea2-15378052a2de"  >
</g>
<g transform="matrix(2.81 0 0 2.81 540 540)"  >
<path style="stroke: none; stroke-width: 1; stroke-dasharray: none; stroke-linecap: butt; stroke-dashoffset: 0; stroke-linejoin: miter; stroke-miterlimit: 4; fill: rgb(0,0,0); fill-rule: nonzero; opacity: 1;"  transform=" translate(-192, -256)" d="M 342.6 150.6 C 355.1 138.1 355.1 117.8 342.6 105.3 C 330.1 92.8 309.8 92.8 297.3 105.3 L 192 210.7 L 86.6 105.4 C 74.1 92.9 53.8 92.9 41.3 105.4 C 28.799999999999997 117.9 28.799999999999997 138.2 41.3 150.7 L 146.7 256 L 41.4 361.4 C 28.9 373.9 28.9 394.2 41.4 406.7 C 53.9 419.2 74.19999999999999 419.2 86.69999999999999 406.7 L 192 301.3 L 297.4 406.6 C 309.9 419.1 330.2 419.1 342.7 406.6 C 355.2 394.1 355.2 373.8 342.7 361.3 L 237.3 256 L 342.6 150.6 z" stroke-linecap="round" />
</g>
</svg>