<svg width="25" height="23" viewBox="0 0 25 23" fill="none" xmlns="http://www.w3.org/2000/svg">
<g id="maki:cross">
<path id="Vector" d="M6.06667 3.48065L12.5 9.39932L18.9 3.51132C19.0414 3.37288 19.2117 3.26214 19.4007 3.18573C19.5897 3.10932 19.7936 3.06882 20 3.06665C20.442 3.06665 20.866 3.2282 21.1785 3.51575C21.4911 3.80331 21.6667 4.19332 21.6667 4.59998C21.6706 4.78797 21.6326 4.97471 21.5553 5.14874C21.4779 5.32276 21.3627 5.4804 21.2167 5.61198L14.7333 11.5L21.2167 17.4647C21.4914 17.7119 21.6524 18.0467 21.6667 18.4C21.6667 18.8066 21.4911 19.1967 21.1785 19.4842C20.866 19.7718 20.442 19.9333 20 19.9333C19.7876 19.9414 19.5757 19.9088 19.3777 19.8375C19.1797 19.7663 19 19.6579 18.85 19.5193L12.5 13.6006L6.08333 19.504C5.94251 19.6378 5.77427 19.7446 5.58834 19.8183C5.4024 19.892 5.20244 19.9311 5 19.9333C4.55797 19.9333 4.13405 19.7718 3.82149 19.4842C3.50893 19.1967 3.33333 18.8066 3.33333 18.4C3.32945 18.212 3.36736 18.0253 3.44474 17.8512C3.52212 17.6772 3.63734 17.5196 3.78333 17.388L10.2667 11.5L3.78333 5.53532C3.50864 5.28808 3.34757 4.95328 3.33333 4.59998C3.33333 4.19332 3.50893 3.80331 3.82149 3.51575C4.13405 3.2282 4.55797 3.06665 5 3.06665C5.4 3.07125 5.78333 3.21998 6.06667 3.48065Z" fill="#EBB402"/>
</g>
</svg>
