<?xml version="1.0" encoding="UTF-8" standalone="no" ?>
<!DOCTYPE svg PUBLIC "-//W3C//DTD SVG 1.1//EN" "http://www.w3.org/Graphics/SVG/1.1/DTD/svg11.dtd">
<svg xmlns="http://www.w3.org/2000/svg" xmlns:xlink="http://www.w3.org/1999/xlink" version="1.1" width="1080" height="1080" viewBox="0 0 1080 1080" xml:space="preserve">
<desc>Created with Fabric.js 5.2.4</desc>
<defs>
</defs>
<g transform="matrix(1 0 0 1 540 540)" id="dceede06-a66d-4b7a-b61c-d5ed8f53140c"  >
<rect style="stroke: none; stroke-width: 1; stroke-dasharray: none; stroke-linecap: butt; stroke-dashoffset: 0; stroke-linejoin: miter; stroke-miterlimit: 4; fill: rgb(255,255,255); fill-rule: nonzero; opacity: 1; visibility: hidden;" vector-effect="non-scaling-stroke"  x="-540" y="-540" rx="0" ry="0" width="1080" height="1080" />
</g>
<g transform="matrix(1 0 0 1 540 540)" id="c970d136-48f6-4e16-9301-2703f996daa8"  >
</g>
<g transform="matrix(2.41 0 0 2.41 540 540)"  >
<path style="stroke: none; stroke-width: 1; stroke-dasharray: none; stroke-linecap: butt; stroke-dashoffset: 0; stroke-linejoin: miter; stroke-miterlimit: 4; fill: rgb(0,0,0); fill-rule: nonzero; opacity: 1;"  transform=" translate(-224, -256)" d="M 256 80 C 256 62.3 241.7 48 224 48 C 206.3 48 192 62.3 192 80 L 192 224 L 48 224 C 30.3 224 16 238.3 16 256 C 16 273.7 30.3 288 48 288 L 192 288 L 192 432 C 192 449.7 206.3 464 224 464 C 241.7 464 256 449.7 256 432 L 256 288 L 400 288 C 417.7 288 432 273.7 432 256 C 432 238.3 417.7 224 400 224 L 256 224 L 256 80 z" stroke-linecap="round" />
</g>
<g transform="matrix(2.41 0 0 2.41 540 540)"  >
<path style="stroke: none; stroke-width: 1; stroke-dasharray: none; stroke-linecap: butt; stroke-dashoffset: 0; stroke-linejoin: miter; stroke-miterlimit: 4; fill: rgb(0,0,0); fill-rule: nonzero; opacity: 1;"  transform=" translate(-224, -256)" d="M 256 80 C 256 62.3 241.7 48 224 48 C 206.3 48 192 62.3 192 80 L 192 224 L 48 224 C 30.3 224 16 238.3 16 256 C 16 273.7 30.3 288 48 288 L 192 288 L 192 432 C 192 449.7 206.3 464 224 464 C 241.7 464 256 449.7 256 432 L 256 288 L 400 288 C 417.7 288 432 273.7 432 256 C 432 238.3 417.7 224 400 224 L 256 224 L 256 80 z" stroke-linecap="round" />
</g>
<g transform="matrix(2.41 0 0 2.41 540 540)"  >
<path style="stroke: none; stroke-width: 1; stroke-dasharray: none; stroke-linecap: butt; stroke-dashoffset: 0; stroke-linejoin: miter; stroke-miterlimit: 4; fill: rgb(0,0,0); fill-rule: nonzero; opacity: 1;"  transform=" translate(-224, -256)" d="M 256 80 C 256 62.3 241.7 48 224 48 C 206.3 48 192 62.3 192 80 L 192 224 L 48 224 C 30.3 224 16 238.3 16 256 C 16 273.7 30.3 288 48 288 L 192 288 L 192 432 C 192 449.7 206.3 464 224 464 C 241.7 464 256 449.7 256 432 L 256 288 L 400 288 C 417.7 288 432 273.7 432 256 C 432 238.3 417.7 224 400 224 L 256 224 L 256 80 z" stroke-linecap="round" />
</g>
</svg>